<svg width="0" height="0" class="hidden">
  <symbol version="1.0" xmlns="http://www.w3.org/2000/svg" preserveAspectRatio="xMidYMid meet" viewBox="0 0 512.000000 512.000000" id="logo-cie">
    <g transform="translate(0.000000,512.000000) scale(0.100000,-0.100000)" fill="#006ac6" stroke="none">
      <path d="M3800 4641 c-88 -30 -1828 -633 -1840 -638 -8 -3 18 -10 58 -15 108
-13 284 -60 404 -108 361 -144 672 -425 852 -770 409 -784 123 -1733 -659
-2186 l-49 -28 29 -7 c1004 -221 1300 -281 1373 -281 113 1 205 74 239 191 20
70 13 200 -17 291 -39 116 -19 182 87 293 44 45 63 72 59 83 -3 9 -6 22 -6 29
0 7 -15 36 -34 63 l-34 50 24 6 c38 10 90 62 102 104 14 45 7 74 -38 160 -26
51 -31 71 -27 104 7 54 59 106 151 154 141 72 232 158 262 246 15 46 15 52 -1
96 -36 97 -116 212 -315 454 -258 313 -255 309 -279 373 -43 115 -48 258 -14
444 8 47 15 137 15 200 0 137 -11 173 -130 465 -81 198 -96 221 -157 230 -16
3 -41 1 -55 -3z"></path>
      <path d="M1660 3675 l0 -105 100 0 100 0 0 105 0 105 -100 0 -100 0 0 -105z"></path>
      <path d="M1013 3760 c-130 -24 -217 -79 -266 -168 -110 -202 -112 -735 -4
-949 34 -65 101 -125 173 -154 54 -22 73 -24 239 -24 107 0 214 6 263 14 l83
14 -2 84 -2 85 -41 -7 c-88 -14 -300 -23 -357 -15 -173 25 -222 127 -223 465
-1 432 74 512 446 476 64 -6 131 -14 147 -17 l31 -6 0 81 c0 56 -4 83 -12 86
-82 29 -383 51 -475 35z"></path>
      <path d="M2274 3400 c-70 -23 -141 -80 -179 -145 -14 -23 -35 -80 -46 -125
-30 -117 -24 -350 11 -453 29 -86 89 -155 162 -188 49 -22 66 -24 218 -24 149
0 312 16 336 33 5 4 8 37 6 73 l-4 67 -188 -6 c-210 -6 -261 2 -304 47 -33 35
-56 91 -56 141 l0 40 289 0 288 0 6 88 c17 240 -65 401 -230 452 -87 27 -224
26 -309 0z m256 -162 c55 -29 81 -76 88 -163 l5 -65 -201 0 -200 0 5 43 c13
110 51 174 115 194 59 19 140 15 188 -9z"></path>
      <path d="M1660 2940 l0 -460 100 0 100 0 0 460 0 460 -100 0 -100 0 0 -460z"></path>
      <path d="M1460 1685 l0 -615 100 0 100 0 0 615 0 615 -100 0 -100 0 0 -615z"></path>
      <path d="M1860 1685 l0 -617 278 5 c208 3 290 8 330 20 223 65 305 229 306
607 0 157 -3 198 -22 272 -42 172 -105 251 -238 300 -55 20 -81 22 -356 26
l-298 4 0 -617z m551 430 c59 -21 105 -68 129 -132 29 -79 43 -255 31 -394
-11 -134 -38 -214 -88 -270 -55 -60 -103 -74 -273 -74 l-145 0 -3 443 -2 442
154 0 c113 0 165 -4 197 -15z"></path>
    </g>
  </symbol>
  <symbol xmlns="http://www.w3.org/2000/svg" viewBox="0 0 101.1 108.5" id="logo-cie-id">
    <title>Risorsa 2</title>
    <g id="Livello_2">
      <g id="Livello_1-2">
        <path d="M30.6,15.7,34,14.5,75.5.2a3.1,3.1,0,0,1,3.1.6,7,7,0,0,1,1.9,2.8c1.2,3.1,2.4,6.1,3.6,9.3a22.1,22.1,0,0,1,1.2,8.9c-.1,1.3-.3,2.6-.3,3.9a15,15,0,0,0,0,3c.1,1.3.2,2.6.4,3.9a14.2,14.2,0,0,0,2.8,7.1c2.8,3.6,5.5,7.3,8.3,11a46.7,46.7,0,0,1,3.8,6,5.5,5.5,0,0,1,.7,2.5,4.1,4.1,0,0,1-.4,2.2,10.9,10.9,0,0,1-2.7,3.3,19.8,19.8,0,0,1-4.1,2.8,9.6,9.6,0,0,0-3,2.3,3.4,3.4,0,0,0-.5,3.6l.9,2.3a3.8,3.8,0,0,1-.5,4.1,10.5,10.5,0,0,1-.8,1.1,3.2,3.2,0,0,0-.4,2.5l.3,1.2a3.1,3.1,0,0,1-.8,2.6c-.6.6-1.1,1.3-1.6,1.9a6.1,6.1,0,0,0-1.5,4.4,12.7,12.7,0,0,0,.6,2.8,16,16,0,0,1,.5,4.9,7.6,7.6,0,0,1-4.1,6.6,6.9,6.9,0,0,1-4,.6l-5.2-.9c-6.5-1.1-12.8-2.7-19.2-4.1L47.8,102h-.2c11.2-7.2,18.5-17.2,21.2-30.2a44.9,44.9,0,0,0-7.1-36.1C54.2,24.6,43.6,18.1,30.6,15.7Z" fill="#fff"></path>
        <path d="M12.2,57.5c-4.8,0-8-1.3-9.7-3.9S0,46.7,0,40.7.9,30.4,2.6,27.9s4.9-3.8,9.6-3.8a39,39,0,0,1,9.2,1.1v4.3a50,50,0,0,0-8.6-.8c-2.8,0-4.7.9-5.7,2.6s-1.6,4.8-1.6,9.5.5,7.8,1.5,9.5,2.9,2.5,5.7,2.5a51,51,0,0,0,8.7-.7v4.4A43.8,43.8,0,0,1,12.2,57.5Z" fill="#fff"></path>
        <path d="M25.5,29.3V23.9h5.2v5.4Zm0,27.7V33.3h5.2V57Z" fill="#fff"></path>
        <path d="M52.9,52.7h1.3v3.8a44.2,44.2,0,0,1-9.6,1.1c-3.5,0-6-.9-7.5-2.9s-2.3-5-2.3-9.2c0-8.4,3.4-12.6,10.3-12.6s9.9,3.6,9.9,10.9l-.3,3.6H40.1a6.8,6.8,0,0,0,1.3,4.4c.8.9,2.3,1.3,4.6,1.3ZM50,43.4c0-2.4-.3-4-1.1-4.9s-2-1.4-3.7-1.4a5,5,0,0,0-3.9,1.4c-.8,1-1.2,2.6-1.2,4.9Z" fill="#fff"></path>
        <path d="M20.2,95.7V63.3h5.3V95.7Z" fill="#fff"></path>
        <path d="M42.2,95.7H30.9V63.3H42.2c4.9,0,8.4,1.2,10.2,3.8s2.7,6.5,2.7,11.9a34.8,34.8,0,0,1-.5,6.9,16.9,16.9,0,0,1-1.9,5.2C50.9,94.2,47.4,95.7,42.2,95.7ZM49.7,79c0-4-.5-6.8-1.5-8.5s-3-2.6-6-2.6h-6V91.1h6c3.1,0,5.2-1.2,6.2-3.5a11.3,11.3,0,0,0,1-3.7A33.8,33.8,0,0,0,49.7,79Z" fill="#fff"></path>
      </g>
    </g>
  </symbol>
</svg>