<svg width="0" height="0" class="hidden">
  <symbol aria-hidden="true" xmlns="http://www.w3.org/2000/svg" viewBox="0 0 14 14" id="logo-apple">
    <path d="M4.544 12.769a2.687 2.687 0 01-.622-.575 7.708 7.708 0 01-.531-.727A7.028 7.028 0 012.5 9.65a6.832 6.832 0 01-.371-2.172c0-.784.17-1.469.5-2.044.245-.45.61-.826 1.05-1.09a2.8 2.8 0 011.42-.42c.174 0 .364.025.564.075.145.04.32.105.534.185.275.105.425.17.475.185.16.06.295.085.4.085.08 0 .195-.025.322-.065.073-.025.21-.07.405-.155.193-.07.346-.13.467-.175a4.17 4.17 0 01.525-.13c.195-.03.388-.04.574-.025.354.025.68.1.97.21.509.205.92.525 1.227.98a3.06 3.06 0 00-.977 1.027 2.543 2.543 0 00-.322 1.259c.008.541.145 1.017.42 1.429.193.3.452.557.766.767.155.105.291.178.42.225a6.44 6.44 0 01-.202.55 7.09 7.09 0 01-.625 1.154c-.216.315-.386.55-.515.705-.2.24-.394.42-.59.548a1.313 1.313 0 01-.725.218 1.609 1.609 0 01-.516-.063 5.01 5.01 0 01-.428-.162 3.468 3.468 0 00-.452-.17 2.332 2.332 0 00-1.161-.001 3.6 3.6 0 00-.454.163c-.21.087-.347.145-.427.17A2.234 2.234 0 015.28 13c-.26 0-.502-.075-.743-.225zm3.425-9.225c-.34.17-.663.242-.986.218-.05-.323 0-.655.135-1.018.12-.31.28-.59.5-.84.23-.26.504-.474.814-.63.33-.17.645-.259.945-.274.04.34 0 .675-.125 1.034a2.97 2.97 0 01-.5.88 2.52 2.52 0 01-.793.63z"></path>
  </symbol>
  <symbol aria-hidden="true" xmlns="http://www.w3.org/2000/svg" viewBox="0 0 14 14" id="logo-facebook">
    <path fill="#485a96" d="M12.338 13a.662.662 0 00.662-.662V1.662A.662.662 0 0012.338 1H1.662A.662.662 0 001 1.662v10.676c0 .365.296.662.662.662h10.676z"></path>
    <path fill="#fff" d="M9.28 13V8.353h1.56l.233-1.811H9.28V5.386c0-.525.145-.882.897-.882h.96v-1.62a12.834 12.834 0 00-1.398-.072c-1.383 0-2.33.844-2.33 2.394v1.336H5.847v1.811H7.41V13h1.87z"></path>
  </symbol>
  <symbol aria-hidden="true" xmlns="http://www.w3.org/2000/svg" viewBox="0 0 14 14" id="logo-github">
    <path d="M7 1.148a6 6 0 00-1.896 11.693c.3.056.396-.13.396-.288v-1.117c-1.669.363-2.017-.708-2.017-.708-.272-.694-.666-.878-.666-.878-.544-.372.041-.365.041-.365.603.043.92.619.92.619.535.917 1.404.652 1.746.498.054-.388.21-.652.381-.802-1.333-.151-2.733-.666-2.733-2.965 0-.656.234-1.19.618-1.61-.062-.152-.268-.762.058-1.589 0 0 .504-.16 1.65.616.479-.133.992-.2 1.502-.203.51.002 1.024.07 1.503.203 1.145-.777 1.648-.616 1.648-.616.327.827.121 1.437.06 1.588.384.42.617.955.617 1.61 0 2.305-1.404 2.813-2.74 2.961.215.186.412.552.412 1.111v1.647c0 .16.096.347.4.288A6 6 0 007 1.148z"></path>
  </symbol>
  <symbol aria-hidden="true" xmlns="http://www.w3.org/2000/svg" viewBox="0 0 14 14" id="logo-google">
    <path fill="#4285f4" d="M12.88 7.133c0-.493-.04-.853-.127-1.226H7.12v2.226h3.307C10.36 8.687 10 9.52 9.2 10.08l-.011.074 1.78 1.38.124.013C12.227 10.5 12.88 8.96 12.88 7.133"></path>
    <path fill="#34a853" d="M7.12 13c1.62 0 2.98-.533 3.973-1.453L9.2 10.08c-.507.353-1.187.6-2.08.6-1.587 0-2.933-1.047-3.413-2.493l-.07.006-1.853 1.433-.024.067A5.996 5.996 0 007.12 13"></path>
    <path fill="#fbbc05" d="M3.707 8.187A3.694 3.694 0 013.507 7c0-.413.073-.813.193-1.187l-.003-.08L1.82 4.278l-.061.03A6.006 6.006 0 001.12 7c0 .967.233 1.88.64 2.693l1.947-1.506"></path>
    <path fill="#eb4335" d="M7.12 3.32c1.127 0 1.887.487 2.32.893l1.693-1.653C10.093 1.593 8.74 1 7.12 1a5.996 5.996 0 00-5.36 3.307L3.7 5.813C4.187 4.367 5.533 3.32 7.12 3.32"></path>
  </symbol>
  <symbol aria-hidden="true" xmlns="http://www.w3.org/2000/svg" viewBox="0 0 14 14" id="logo-instagram">
    <radialGradient id="a" cx="130.802" cy="895.869" r="968.776" gradientTransform="matrix(.539 -.842 .618 .395 -492.923 652.145)" gradientUnits="userSpaceOnUse">
      <stop offset="0" stop-color="#F9ED32"></stop>
      <stop offset=".53" stop-color="#FF4700"></stop>
      <stop offset=".72" stop-color="#EE2A7B"></stop>
      <stop offset="1" stop-color="#002AFF"></stop>
    </radialGradient>
    <path fill="url(#a)" d="M43.7 180h524.6c24.2 0 43.7 19.6 43.7 43.7v524.6c0 24.2-19.6 43.7-43.7 43.7H43.7C19.6 792 0 772.4 0 748.3V223.7C0 199.6 19.6 180 43.7 180z" transform="translate(1 -2.53) scale(.0196)"></path>
    <g fill="#fff" stroke="#fff" stroke-miterlimit="10" transform="translate(1 -2.53) scale(.0196)">
      <path stroke-width="8" d="M413.9 721.5H198.1c-70.3 0-127.6-57.2-127.6-127.6V378.1c0-70.3 57.2-127.6 127.6-127.6H414c70.3 0 127.6 57.2 127.6 127.6V594c-.1 70.3-57.3 127.5-127.7 127.5zM198.1 289.8c-48.7 0-88.3 39.6-88.3 88.3V594c0 48.7 39.6 88.3 88.3 88.3H414c48.7 0 88.3-39.6 88.3-88.3V378.1c0-48.7-39.6-88.3-88.3-88.3H198.1zm107.9 314c-64.9 0-117.8-52.8-117.8-117.8 0-64.9 52.8-117.8 117.8-117.8 64.9 0 117.8 52.8 117.8 117.8 0 64.9-52.9 117.8-117.8 117.8zm0-196.3c-43.3 0-78.5 35.2-78.5 78.5s35.2 78.5 78.5 78.5 78.5-35.2 78.5-78.5-35.2-78.5-78.5-78.5z"></path>
      <circle cx="427.7" cy="364.3" r="25" stroke-width="9"></circle>
    </g>
  </symbol>
  <symbol aria-hidden="true" xmlns="http://www.w3.org/2000/svg" viewBox="0 0 14 14" id="logo-microsoft">
    <path d="M6.7 13H1V7.3h5.7V13zm6.3 0H7.3V7.3H13V13zM6.7 6.7H1V1h5.7v5.7zm6.3 0H7.3V1H13v5.7z"></path>
  </symbol>
  <symbol aria-hidden="true" xmlns="http://www.w3.org/2000/svg" viewBox="0 0 14 14" id="logo-slack">
    <path fill="#ecb32d" d="M8.777 1.744a1.079 1.079 0 00-1.348-.689 1.08 1.08 0 00-.689 1.348l2.765 8.503a1.07 1.07 0 001.3.66c.57-.168.915-.768.728-1.32 0-.02-2.756-8.502-2.756-8.502z"></path>
    <path fill="#63c1a0" d="M4.496 3.132a1.079 1.079 0 00-1.348-.69 1.08 1.08 0 00-.689 1.349l2.766 8.502c.187.522.757.817 1.299.66.57-.168.915-.768.728-1.319 0-.02-2.756-8.502-2.756-8.502z"></path>
    <path fill="#e01a59" d="M12.26 8.78c.562-.187.867-.787.69-1.348a1.079 1.079 0 00-1.348-.689L3.089 9.518a1.067 1.067 0 00-.66 1.3c.168.57.768.914 1.32.727.02 0 8.512-2.765 8.512-2.765z"></path>
    <path fill="#331433" d="M4.86 11.191c.552-.177 1.27-.413 2.038-.66-.178-.55-.414-1.269-.66-2.036l-2.037.66.66 2.036z"></path>
    <path fill="#d62027" d="M9.151 9.794c.768-.246 1.486-.482 2.037-.66-.177-.55-.413-1.269-.66-2.037l-2.036.66.66 2.037z"></path>
    <path fill="#89d3df" d="M10.863 4.5c.561-.187.866-.788.69-1.349a1.079 1.079 0 00-1.349-.689L1.702 5.228a1.067 1.067 0 00-.66 1.299c.168.57.768.915 1.319.728.02 0 8.502-2.756 8.502-2.756z"></path>
    <path fill="#258b74" d="M3.473 6.9c.551-.176 1.27-.413 2.037-.659-.246-.767-.482-1.486-.66-2.037l-2.036.66.659 2.037z"></path>
    <path fill="#819c3c" d="M7.754 5.513c.767-.246 1.486-.482 2.037-.66-.246-.767-.482-1.485-.66-2.036l-2.037.66.66 2.036z"></path>
  </symbol>
</svg>